<?xml version="1.0" encoding="utf-8"?>
<!-- Generator: Adobe Illustrator 24.3.0, SVG Export Plug-In . SVG Version: 6.00 Build 0)  -->
<svg version="1.1" id="Layer_1" xmlns="http://www.w3.org/2000/svg" xmlns:xlink="http://www.w3.org/1999/xlink" x="0px" y="0px"
	 viewBox="0 0 500 500" style="enable-background:new 0 0 500 500;" xml:space="preserve">
<style type="text/css">
	.st0{fill:#00B4FF;}
	.st1{fill:#18B8EC;}
	.st2{fill:#808084;}
	.st3{fill:#173245;}
	.st4{fill:#F43838;}
	.st5{fill:#EFAB60;}
	.st6{fill:#66D300;}
	.st7{fill:none;stroke:#808084;stroke-width:0.5;stroke-miterlimit:10;}
	.st8{fill:#FF4D4D;}
	.st9{fill:#FFFFFF;}
</style>
<g>
	<path class="st9" d="M264.4,186.8c-5.1-0.8-9.3-4.8-10.2-9.9c-0.5-2.9,0-5.7,1.3-8.1c-3.1-0.7-6.4-0.9-9.8-0.3
		c-10.8,1.9-19.1,11.2-19.8,22.1c-0.9,14.7,11.5,26.8,26.3,25.5c11.1-1,20.2-9.9,21.6-21c0.4-3.6,0.1-7-0.9-10.2
		C270.5,186.5,267.6,187.3,264.4,186.8z M252.6,193.5c-2.1,0-3.9-1.7-3.9-3.9c0-2.1,1.7-3.9,3.9-3.9c2.1,0,3.9,1.7,3.9,3.9
		C256.5,191.7,254.8,193.5,252.6,193.5z"/>
	<path class="st9" d="M253.6,226.3c-22.1,2.2-40.6-16.3-38.4-38.4c1.6-16.4,14.9-29.6,31.2-31.2c22.1-2.2,40.6,16.3,38.4,38.4
		C283.2,211.5,270,224.7,253.6,226.3z M254,161.3c-19.9-2.5-36.7,14.3-34.2,34.2c1.7,13.6,12.7,24.5,26.3,26.3
		c19.9,2.5,36.7-14.3,34.2-34.2C278.5,174,267.6,163,254,161.3z"/>
	<path class="st9" d="M250,160.6c38.6,0,73.3,14.7,97.1,38c-20-28.5-56-47.4-97.1-47.4s-77.1,19-97.1,47.4
		C176.7,175.3,211.4,160.6,250,160.6z"/>
	<g>
		<path class="st9" d="M322.1,107.3c1.3-0.7,2.7-1.1,4.3-1.1c1.7,0,3.3,0.5,4.6,1.3l16.1-16.1V65.4h-41.5v24L322.1,107.3z"/>
		<path class="st9" d="M334.3,110.8c1.1,1.9,1.6,4.1,1.1,6.6c-0.8,3.6-3.7,6.4-7.3,7.1c-5.8,1-10.9-3.4-10.9-9c0-1.8,0.6-3.5,1.5-5
			l-13.1-14.2v59.4c16.3,7.6,30.5,18.5,41.5,32.2V97.9L334.3,110.8z"/>
	</g>
	<g>
		<path class="st9" d="M268.3,65.6c-1.6-2-2.4-4.7-1.8-7.6c0.8-3.5,3.6-6.3,7.1-7c5.9-1.2,11.1,3.3,11.1,9c0,1.8-0.6,3.5-1.5,5
			l13.1,14.2V21.6h-41.5v61.8L268.3,65.6z"/>
		<path class="st9" d="M279.7,68.1c-1.3,0.7-2.7,1.1-4.3,1.1c-1.3,0-2.5-0.3-3.6-0.7L254.7,91v52.6c14.5,0.5,28.5,3.3,41.5,8V86
			L279.7,68.1z"/>
	</g>
	<g>
		<path class="st9" d="M217.2,121.4c1.7-2.3,4.3-3.8,7.4-3.8c1.3,0,2.5,0.3,3.6,0.7l17.2-22.6V46.5h-41.5v69.6L217.2,121.4z"/>
		<path class="st9" d="M231.7,121.2c1.6,2,2.4,4.7,1.8,7.6c-0.8,3.5-3.6,6.3-7.1,7c-5.9,1.2-11.1-3.3-11.1-9c0-0.4,0.1-0.8,0.1-1.1
			l-11.7-4.7v30.6c13-4.8,27-7.6,41.5-8v-40.2L231.7,121.2z"/>
	</g>
	<g>
		<path class="st9" d="M165.4,110.3c-1-2.1-1.4-4.5-0.4-7.2c1.1-3,3.7-5.3,6.9-5.9c5.8-1.1,10.9,3.4,10.9,9c0,0.5-0.1,1-0.1,1.5
			l11.7,4.7V85.1h-41.5v37.8L165.4,110.3z"/>
		<path class="st9" d="M180.8,111.9c-1.7,2.1-4.2,3.5-7.2,3.5c-1.9,0-3.7-0.6-5.2-1.6l-15.6,15.6v58.5c11-13.7,25.2-24.6,41.5-32.2
			v-38.3L180.8,111.9z"/>
	</g>
	<g>
		<path class="st9" d="M191.8,233.6v32.2h-8.4v-20.2l-7.5,20.2h-7.3l-7.5-20.2v20.2h-8.4v-32.2h10.2l9.4,22.5l9.2-22.5H191.8z"/>
		<path class="st9" d="M218.6,259.9h-13l-2.2,5.9h-8.8l12.7-32.2h9.7l12.7,32.2h-8.9L218.6,259.9z M216.4,253.9l-4.3-11.9l-4.4,11.9
			H216.4z"/>
		<path class="st9" d="M250.2,265.8l-7.5-12.3h-1.9v12.3h-8.4v-32.5h14.3c2.7,0,5.1,0.4,7,1.3c1.9,0.9,3.3,2.1,4.3,3.6
			c0.9,1.5,1.4,3.3,1.4,5.3c0,2.4-0.7,4.4-2.1,6c-1.4,1.7-3.4,2.8-6.1,3.4l8.2,12.8H250.2z M240.8,248.2h5.2c1.7,0,2.9-0.3,3.7-1
			c0.8-0.7,1.2-1.7,1.2-3.1c0-1.3-0.4-2.3-1.2-3c-0.8-0.7-2-1.1-3.7-1.1h-5.2V248.2z"/>
		<path class="st9" d="M279.4,249.2l14,16.6h-10.1l-11.8-14.6v14.6h-8.4v-32.5h8.4v14.3l11.9-14.3h10L279.4,249.2z"/>
		<path class="st9" d="M304.8,239.6v6.8h11.7v5.9h-11.7v7.2H318v6.3h-21.6v-32.5H318v6.2H304.8z"/>
		<path class="st9" d="M347.1,233.3v6.2h-9.4v26.2h-8.4v-26.2H320v-6.2H347.1z"/>
	</g>
	<g>
		<g>
			<path class="st9" d="M209.6,280.4l-4.2,15.3h-1.9l-4.1-13.1l-4.1,13.1h-1.9l-4.2-15.3h1.8l3.4,13.4l4.1-13.4h1.8l4.1,13.4
				l3.4-13.4H209.6z"/>
			<path class="st9" d="M224.2,292h-7.4l-1.5,3.7h-1.7l6-14.9h1.8l6,14.9h-1.8L224.2,292z M223.7,290.8l-3.2-8.2l-3.3,8.2H223.7z"/>
			<path class="st9" d="M241.8,280.4v1.2h-4.7v14.1h-1.6v-14.1h-4.6v-1.2H241.8z"/>
			<path class="st9" d="M258.7,281.6c1.3,0.9,2.2,2.1,2.7,3.7h-1.7c-0.4-1.1-1.2-2-2.2-2.6c-1-0.7-2.2-1-3.7-1
				c-1.1,0-2.1,0.3-3.1,0.8c-0.9,0.5-1.6,1.3-2.2,2.2c-0.5,1-0.8,2.1-0.8,3.4c0,1.3,0.3,2.4,0.8,3.4c0.5,1,1.2,1.7,2.2,2.2
				c0.9,0.5,1.9,0.8,3.1,0.8c1.5,0,2.7-0.3,3.7-1c1-0.6,1.7-1.5,2.2-2.6h1.7c-0.5,1.6-1.4,2.8-2.7,3.7c-1.3,0.9-2.9,1.3-4.9,1.3
				c-1.5,0-2.8-0.3-4-1c-1.2-0.7-2.1-1.6-2.7-2.8c-0.6-1.2-1-2.5-1-4c0-1.5,0.3-2.9,1-4.1c0.6-1.2,1.6-2.1,2.7-2.8
				c1.2-0.7,2.5-1,4-1C255.8,280.3,257.4,280.7,258.7,281.6z"/>
			<path class="st9" d="M279,280.4v15.3h-1.6v-7.2h-8.8v7.2h-1.6v-15.3h1.6v6.8h8.8v-6.8H279z"/>
			<path class="st9" d="M286.8,281.7v5.8h6.4v1.2h-6.4v5.8h7.1v1.3h-8.7v-15.3h8.7v1.2H286.8z"/>
			<path class="st9" d="M308,295.7l-4.5-6.4h-2.6v6.4h-1.6v-15.3h5c1.8,0,3.2,0.4,4.1,1.2c0.9,0.8,1.4,1.9,1.4,3.3
				c0,1.3-0.4,2.3-1.1,3c-0.8,0.8-1.9,1.2-3.3,1.3l4.6,6.4H308z M300.9,288.2h3.2c2.6,0,3.9-1.1,3.9-3.2c0-2.2-1.3-3.3-3.9-3.3h-3.2
				V288.2z"/>
		</g>
		<rect x="152.9" y="289.3" class="st9" width="26" height="1.9"/>
		<rect x="320.2" y="289.3" class="st9" width="26" height="1.9"/>
	</g>
</g>
</svg>
