<?xml version="1.0" encoding="utf-8"?>
<!-- Generator: Adobe Illustrator 23.0.2, SVG Export Plug-In . SVG Version: 6.00 Build 0)  -->
<svg version="1.1" id="Layer_1" xmlns="http://www.w3.org/2000/svg" xmlns:xlink="http://www.w3.org/1999/xlink" x="0px" y="0px"
	 viewBox="0 0 142.79 142.79" style="enable-background:new 0 0 142.79 142.79;" xml:space="preserve">
<style type="text/css">
	.st0{fill:#F8F7F7;}
	.st1{fill:#36B8EB;}
	.st2{fill:#888687;}
	.st3{fill-rule:evenodd;clip-rule:evenodd;fill:#36B8EB;}
	.st4{fill:none;stroke:#39B8EB;stroke-width:0.25;stroke-miterlimit:10;}
	.st5{fill-rule:evenodd;clip-rule:evenodd;fill:#888687;}
</style>
<g>
	<circle class="st0" cx="71.39" cy="71.39" r="71.39"/>
	<g>
		<path class="st1" d="M52.23,41.57c-5.88,0-10.66,4.78-10.66,10.67c0,5.88,4.78,10.66,10.66,10.66S62.9,58.11,62.9,52.23
			C62.9,46.35,58.11,41.57,52.23,41.57z M52.23,60.92c-4.79,0-8.69-3.9-8.69-8.69c0-4.79,3.9-8.69,8.69-8.69s8.69,3.9,8.69,8.69
			C60.92,57.02,57.02,60.92,52.23,60.92z"/>
		<path class="st1" d="M54.69,53.28l-1.46-1.46v-5.28c0-0.55-0.44-0.99-0.99-0.99c-0.54,0-0.99,0.44-0.99,0.99v5.69
			c0,0.26,0.11,0.52,0.29,0.7l1.75,1.75c0.37,0.37,1.03,0.37,1.4,0C55.08,54.29,55.08,53.66,54.69,53.28z"/>
		<path class="st1" d="M42.56,101.22h57.68c0.54,0,0.99-0.44,0.99-0.99V81.47c0-0.55-0.44-0.99-0.99-0.99h-7.31l-0.05-0.08
			c-0.97-1.38-2.42-2.35-4.07-2.71l-5.57-1.22l0.36-0.24C85.72,74.8,87,72.4,87,69.83v-4.48c0-4.26-3.47-7.73-7.73-7.73
			c-4.26,0-7.73,3.47-7.73,7.73v4.48c0,2.57,1.28,4.96,3.41,6.41l0.35,0.24l-5.57,1.22c-0.21,0.05-0.41,0.1-0.63,0.17l-0.24,0.08
			v-9.95c0-0.55-0.44-0.99-0.99-0.99H59.9c-0.55,0-0.99,0.44-0.99,0.99s0.44,0.99,0.99,0.99h6.98v16.78h-8.34v-6.04
			c0-1.84-1.5-3.33-3.33-3.33s-3.33,1.5-3.33,3.33v6.04h-8.34V68.98h6.98c0.55,0,0.99-0.44,0.99-0.99S51.07,67,50.53,67h-7.97
			c-0.54,0-0.99,0.44-0.99,0.99v18.76c0,0.55,0.44,0.99,0.99,0.99h9.33v2.59h-0.3c-1.9,0-3.45,1.55-3.45,3.45v0.77h-5.58
			c-0.54,0-0.99,0.44-0.99,0.99v4.69C41.57,100.78,42.01,101.22,42.56,101.22z M99.24,94.55H86.21v-2.71h13.03V94.55z M99.24,89.86
			H86.21v-2.71h13.03V89.86z M99.24,82.46v2.71H86.21v-2.71H99.24z M73.52,65.35c0-3.17,2.58-5.75,5.75-5.75
			c2.98,0,5.5,2.33,5.73,5.3l0.03,0.35L82,63.47c-0.42-0.24-0.95-0.15-1.26,0.22c-1.22,1.46-3.01,2.3-4.92,2.3h-2.31V65.35z
			 M73.52,69.83v-1.87h2.31c2.15,0,4.2-0.81,5.76-2.29l0.1-0.09l3.33,1.96v2.3c0,3.17-2.58,5.75-5.75,5.75S73.52,73,73.52,69.83z
			 M81.4,77.27l-2.15,5.74l-2.15-5.75l0.34,0.08c1.19,0.29,2.43,0.29,3.63,0.01L81.4,77.27z M66.42,87.74h1.45
			c0.55,0,0.99-0.44,0.99-0.99v-6.63l0.1-0.05c0.37-0.2,0.78-0.35,1.2-0.44l5.28-1.16l2.88,7.71c0.14,0.38,0.52,0.64,0.93,0.64
			c0.41,0,0.78-0.26,0.93-0.64l2.88-7.7l5.31,1.16c0.47,0.1,0.91,0.27,1.33,0.51l0.6,0.34h-5.08c-0.55,0-0.99,0.44-0.99,0.99v13.08
			H66.42V87.74z M58.55,87.74h5.9v6.81H62.3v-0.77c0-1.9-1.55-3.45-3.45-3.45h-0.3V87.74z M53.86,79.72c0-0.75,0.61-1.36,1.36-1.36
			c0.75,0,1.36,0.61,1.36,1.36v10.62h-2.71V79.72z M50.11,93.78c0-0.81,0.66-1.47,1.47-1.47h7.27c0.81,0,1.47,0.66,1.47,1.47v0.77
			H50.11V93.78z M43.54,96.53h55.7v2.71h-55.7V96.53z"/>
		<path class="st1" d="M55.22,67c-0.26,0-0.51,0.11-0.7,0.29c-0.18,0.18-0.29,0.44-0.29,0.7c0,0.26,0.11,0.51,0.29,0.7
			c0.37,0.37,1.03,0.37,1.4,0c0.18-0.18,0.29-0.44,0.29-0.7c0-0.26-0.11-0.51-0.29-0.7C55.73,67.11,55.48,67,55.22,67z"/>
	</g>
</g>
</svg>
