<?xml version="1.0" encoding="utf-8"?>
<!-- Generator: Adobe Illustrator 23.0.2, SVG Export Plug-In . SVG Version: 6.00 Build 0)  -->
<svg version="1.1" id="Layer_1" xmlns="http://www.w3.org/2000/svg" xmlns:xlink="http://www.w3.org/1999/xlink" x="0px" y="0px"
	 viewBox="0 0 142.79 142.79" style="enable-background:new 0 0 142.79 142.79;" xml:space="preserve">
<style type="text/css">
	.st0{fill:#F8F7F7;}
	.st1{fill:#36B8EB;}
	.st2{fill:#888687;}
	.st3{fill-rule:evenodd;clip-rule:evenodd;fill:#36B8EB;}
	.st4{fill:none;stroke:#39B8EB;stroke-width:0.25;stroke-miterlimit:10;}
	.st5{fill-rule:evenodd;clip-rule:evenodd;fill:#888687;}
</style>
<g>
	<circle class="st0" cx="71.39" cy="71.39" r="71.39"/>
	<path class="st1" d="M94.89,91.99l-0.99-0.4c5-5.56,7.74-12.7,7.74-20.2c0-6.14-1.86-12.05-5.24-17.01
		c-0.04-0.08-0.09-0.15-0.15-0.22c-1.48-2.14-3.24-4.09-5.27-5.81c-0.4-0.34-1-0.29-1.35,0.11c-0.34,0.4-0.29,1,0.11,1.35
		c1.62,1.38,3.07,2.92,4.32,4.6c-2.02,0.79-4.45,1.46-7.16,1.99c-0.75-2.23-1.67-4.3-2.75-6.18c-1.46-2.53-3.13-4.56-4.96-6.06
		c2.84,0.81,5.55,2.07,8.03,3.75c0.44,0.3,1.03,0.18,1.33-0.26c0.3-0.44,0.18-1.03-0.26-1.33c-5-3.38-10.85-5.17-16.91-5.17
		c-8.08,0-15.67,3.15-21.38,8.86c-5.71,5.71-8.86,13.31-8.86,21.38c0,7.51,2.75,14.65,7.75,20.22l-0.98,0.38
		c-0.36,0.13-3.43,1.36-3.43,5.26v3.42c0,0.53,0.43,0.96,0.95,0.96h5.49h0.86h1.02h4.89h1.8c0.05,0,0.09,0,0.14-0.01
		c0.04,0.01,0.09,0.01,0.14,0.01h3.89c0.53,0,0.95-0.43,0.95-0.95c0-0.53-0.43-0.95-0.95-0.95h-2.93V96.4
		c0-3.51,2.76-4.52,2.87-4.56c0.01,0,0.03-0.01,0.04-0.02L68.29,90c0.01,0.01,0.02,0.02,0.03,0.03l2.47,2.41
		c0.18,0.17,0.42,0.27,0.67,0.27c0,0,0.01,0,0.02,0c0.25,0,0.5-0.11,0.67-0.29l2.37-2.46l4.64,1.86c0.02,0.01,0.03,0.01,0.05,0.02
		c0.12,0.04,2.87,1.05,2.87,4.56v3.33h-6.98h-7.38h-1.07c-0.53,0-0.95,0.43-0.95,0.95c0,0.53,0.43,0.95,0.95,0.95h1.07h7.38h7.94h0
		h0h1.22h0.86h1.02h4.89h6.35c0.53,0,0.95-0.43,0.95-0.96v-3.42C98.32,93.36,95.27,92.13,94.89,91.99z M91.06,90.46v-0.54
		c1.04-0.61,1.84-1.59,2.22-2.75c1.39-0.11,2.49-1.27,2.49-2.69c0-0.84-0.39-1.6-0.99-2.09v-1.7c0-3.27-2.46-5.98-5.62-6.38
		c0.04-0.65,0.06-1.3,0.07-1.95h10.49c-0.23,6.91-2.94,13.44-7.71,18.49L91.06,90.46z M82.34,84.47c0-0.28,0.15-0.52,0.36-0.66v1.33
		C82.49,85,82.34,84.75,82.34,84.47z M72.01,85.92h-1.09c-2.24,0-4.07-1.82-4.07-4.07v-3.37c1.52-0.14,4.54-0.67,6.74-2.65
		c0.46,0.88,1.24,1.9,2.48,2.43v3.59C76.08,84.1,74.26,85.92,72.01,85.92z M64.01,80.41c0-0.58,0.4-1.06,0.93-1.19v2.38
		C64.41,81.47,64.01,80.99,64.01,80.41z M65.27,70.44h-9.79c0.08-4.19,0.67-8.23,1.72-11.88c4.03,0.68,8.56,1.07,13.24,1.12v8.22
		c-2,0.19-3.79,1.13-5.06,2.55C65.34,70.44,65.3,70.44,65.27,70.44z M53.77,90.56c0.2,0.02,0.39,0.04,0.6,0.04h0.87
		c0.2,0,0.4-0.01,0.6-0.04v0.53l-1.06,1.1l-1-0.97L53.77,90.56L53.77,90.56z M55.23,88.69h-0.87c-1.69,0-3.06-1.37-3.06-3.06V83.1
		c1.24-0.13,3.45-0.57,5.14-1.99c0.38,0.65,0.97,1.36,1.85,1.77v2.74C58.29,87.31,56.92,88.69,55.23,88.69z M49.03,84.47
		c0-0.28,0.15-0.52,0.36-0.66v1.33C49.17,85,49.03,84.75,49.03,84.47z M60.2,83.83c0.2,0.14,0.33,0.38,0.33,0.64
		c0,0.27-0.13,0.5-0.33,0.64V83.83z M59.54,81.3c-0.02-0.01-0.04-0.01-0.06-0.02c-0.01,0-0.02-0.01-0.03-0.01
		c-1.33-0.3-1.77-2.08-1.77-2.09c-0.08-0.37-0.37-0.65-0.74-0.72c-0.37-0.08-0.75,0.07-0.97,0.38c-1.73,2.39-5.59,2.42-5.64,2.42
		c0,0,0,0,0,0c-0.03,0-0.07,0-0.1,0c-0.01,0-0.02,0-0.03,0c-0.02,0-0.04,0.01-0.06,0.01c-0.01,0-0.03,0.01-0.04,0.01
		c-0.02,0-0.03,0.01-0.05,0.01c-0.01,0-0.02,0.01-0.03,0.01v-0.62c0-2.5,2.03-4.53,4.53-4.53h0.46c2.5,0,4.53,2.03,4.53,4.53
		L59.54,81.3L59.54,81.3z M43.08,70.44c0.18-5.3,1.82-10.24,4.53-14.43c2.15,0.88,4.77,1.62,7.7,2.2
		c-1.07,3.78-1.67,7.92-1.75,12.22H43.08z M77.64,75.67v1.17c-0.01-0.01-0.01-0.01-0.02-0.01c-0.01-0.01-0.03-0.02-0.04-0.03
		c-0.01-0.01-0.02-0.02-0.03-0.02c-0.01-0.01-0.03-0.02-0.04-0.03c-0.01-0.01-0.03-0.01-0.04-0.02c-0.01-0.01-0.03-0.01-0.04-0.02
		c-0.02-0.01-0.03-0.01-0.05-0.02c-0.01,0-0.02-0.01-0.04-0.01c-0.02-0.01-0.04-0.01-0.06-0.02c-0.01,0-0.02-0.01-0.03-0.01
		c-1.81-0.41-2.39-2.78-2.39-2.8c-0.08-0.37-0.37-0.65-0.74-0.72c-0.37-0.08-0.75,0.07-0.97,0.38c-2.24,3.09-7.18,3.12-7.24,3.12
		c0,0,0,0,0,0c0,0,0,0,0,0c-0.03,0-0.07,0-0.1,0c-0.01,0-0.02,0-0.03,0c-0.02,0-0.04,0.01-0.06,0.01c-0.01,0-0.03,0.01-0.04,0.01
		c-0.02,0-0.03,0.01-0.05,0.01c-0.02,0-0.03,0.01-0.05,0.02c-0.01,0.01-0.03,0.01-0.04,0.02c-0.02,0.01-0.03,0.02-0.05,0.02
		c-0.01,0.01-0.02,0.01-0.03,0.02c-0.02,0.01-0.03,0.02-0.05,0.03c-0.01,0.01-0.02,0.01-0.03,0.02c-0.02,0.01-0.03,0.02-0.04,0.03
		c-0.01,0.01-0.02,0.01-0.03,0.02c-0.01,0.01-0.02,0.02-0.03,0.02v-1.19c0-3.25,2.65-5.9,5.9-5.9h0.57
		C74.99,69.77,77.64,72.42,77.64,75.67z M70.44,43.12v14.65c-4.48-0.05-8.8-0.41-12.66-1.04c0.69-2,1.53-3.87,2.5-5.56
		C63.06,46.34,66.64,43.52,70.44,43.12z M77.99,79.23c0.52,0.15,0.9,0.62,0.9,1.18c0,0.56-0.38,1.04-0.9,1.18V79.23z M77.53,70.44
		c-1.3-1.44-3.13-2.39-5.18-2.55v-8.21c4.69-0.05,9.21-0.44,13.24-1.11c1.05,3.65,1.65,7.68,1.72,11.88L77.53,70.44
		C77.53,70.44,77.53,70.44,77.53,70.44z M87.88,76.16h0.46c2.5,0,4.53,2.03,4.53,4.53v0.61c-0.02-0.01-0.04-0.01-0.05-0.01
		c-0.01,0-0.02-0.01-0.03-0.01c-1.33-0.3-1.77-2.08-1.77-2.09c-0.08-0.37-0.37-0.65-0.74-0.72c-0.37-0.08-0.75,0.07-0.97,0.38
		c-1.73,2.39-5.58,2.42-5.63,2.42c0,0,0,0,0,0c-0.03,0-0.07,0-0.1,0c-0.01,0-0.02,0-0.03,0c-0.02,0-0.04,0.01-0.06,0.01
		c-0.01,0-0.03,0.01-0.04,0.01c-0.02,0-0.03,0.01-0.05,0.01c-0.01,0-0.02,0.01-0.03,0.01v-0.62C83.35,78.19,85.38,76.16,87.88,76.16
		z M93.52,83.83c0.2,0.14,0.33,0.38,0.33,0.64c0,0.27-0.13,0.5-0.33,0.64V83.83z M84.62,83.1c1.24-0.13,3.45-0.57,5.14-1.99
		c0.38,0.65,0.97,1.36,1.85,1.77v2.74c0,1.69-1.37,3.06-3.06,3.06h-0.87c-1.69,0-3.06-1.37-3.06-3.06L84.62,83.1L84.62,83.1z
		 M87.08,90.56c0.2,0.02,0.39,0.04,0.6,0.04h0.87c0.2,0,0.4-0.01,0.6-0.04v0.53l-1.06,1.1l-1-0.97V90.56z M95.18,56.01
		c2.77,4.27,4.35,9.25,4.52,14.43H89.22c-0.08-4.3-0.68-8.44-1.75-12.22C90.41,57.63,93.02,56.89,95.18,56.01z M82.5,51.16
		c0.98,1.69,1.81,3.56,2.5,5.57c-3.85,0.63-8.17,0.99-12.66,1.04V43.12C76.15,43.52,79.72,46.34,82.5,51.16z M63.57,44.16
		c-1.82,1.5-3.49,3.53-4.95,6.05c-1.08,1.87-2,3.95-2.75,6.18c-2.71-0.53-5.13-1.2-7.15-1.98C52.39,49.54,57.58,45.88,63.57,44.16z
		 M43.08,72.35h10.49c0.01,0.66,0.04,1.31,0.07,1.97c-3.11,0.45-5.52,3.13-5.52,6.37v1.69c-0.61,0.5-1.01,1.25-1.01,2.1
		c0,1.43,1.11,2.6,2.52,2.69c0.38,1.16,1.18,2.14,2.22,2.75v0.54l-1.04,0.41C46.03,85.81,43.31,79.27,43.08,72.35z M52.81,99.72
		h-1.02h-0.86H46.4v-2.47c0-2.66,2.08-3.43,2.16-3.46c0.01,0,0.03-0.01,0.04-0.02l3.6-1.41l1.91,1.86c0.18,0.17,0.42,0.27,0.67,0.27
		c0,0,0.01,0,0.02,0c0.25,0,0.5-0.11,0.67-0.29l1.81-1.88l2.23,0.9c-0.42,0.87-0.7,1.92-0.7,3.17v3.33H57.7H52.81z M62.96,90.04
		c-0.65,0.22-1.54,0.73-2.33,1.58l-2.89-1.16v-0.54c1.04-0.61,1.84-1.59,2.22-2.75c1.39-0.11,2.49-1.27,2.49-2.69
		c0-0.84-0.39-1.6-1-2.09v-1.7c0-3.37-2.6-6.14-5.9-6.41c-0.04-0.64-0.06-1.28-0.07-1.92h8.63c-0.48,1.01-0.74,2.14-0.74,3.32v2.23
		c-0.76,0.57-1.26,1.48-1.26,2.51c0,1.71,1.38,3.11,3.09,3.14c0.45,1.51,1.48,2.78,2.84,3.53v0.97L62.96,90.04z M71.43,90.4
		l-1.5-1.46v-1.2c0.32,0.05,0.65,0.08,0.99,0.08h1.09c0.34,0,0.66-0.03,0.99-0.08v0.97c0,0,0,0,0,0v0.06L71.43,90.4z M79.85,90.04
		l-4.94-1.98v-0.98c1.36-0.75,2.39-2.02,2.84-3.53c1.69-0.05,3.05-1.44,3.05-3.14c0-1.02-0.49-1.93-1.24-2.5v-2.24
		c0-1.19-0.27-2.31-0.74-3.32h8.5c-0.01,0.65-0.04,1.29-0.07,1.93c-3.25,0.32-5.8,3.07-5.8,6.4v1.69c-0.61,0.5-1.01,1.25-1.01,2.1
		c0,1.43,1.11,2.6,2.52,2.69c0.38,1.16,1.18,2.14,2.22,2.75v0.54l-2.99,1.17C81.39,90.78,80.5,90.26,79.85,90.04z M96.41,99.72
		h-5.39h-4.89h-1.02h-0.86h-0.26V96.4c0-1.25-0.28-2.29-0.7-3.16l2.23-0.87l1.91,1.86c0.18,0.17,0.42,0.27,0.67,0.27
		c0,0,0.01,0,0.02,0c0.25,0,0.5-0.11,0.67-0.29l1.81-1.88l3.59,1.44c0.02,0.01,0.03,0.01,0.04,0.02c0.09,0.03,2.17,0.8,2.17,3.47
		L96.41,99.72L96.41,99.72z"/>
</g>
</svg>
