<?xml version="1.0" encoding="utf-8"?>
<!-- Generator: Adobe Illustrator 23.0.2, SVG Export Plug-In . SVG Version: 6.00 Build 0)  -->
<svg version="1.1" id="Layer_1" xmlns="http://www.w3.org/2000/svg" xmlns:xlink="http://www.w3.org/1999/xlink" x="0px" y="0px"
	 viewBox="0 0 142.79 142.79" style="enable-background:new 0 0 142.79 142.79;" xml:space="preserve">
<style type="text/css">
	.st0{fill:#F8F7F7;}
	.st1{fill:#36B8EB;}
	.st2{fill:#888687;}
	.st3{fill-rule:evenodd;clip-rule:evenodd;fill:#36B8EB;}
	.st4{fill:none;stroke:#39B8EB;stroke-width:0.25;stroke-miterlimit:10;}
	.st5{fill-rule:evenodd;clip-rule:evenodd;fill:#888687;}
</style>
<g>
	<circle class="st0" cx="71.39" cy="71.39" r="71.39"/>
	<g>
		<rect x="44.19" y="74.41" class="st1" width="2.01" height="2.01"/>
		<rect x="48.22" y="74.41" class="st1" width="2.01" height="2.01"/>
		<rect x="52.25" y="74.41" class="st1" width="2.01" height="2.01"/>
		<path class="st1" d="M102.62,52.25H78.39c0.03-0.33,0.06-0.67,0.06-1.01c0-6.11-4.97-11.08-11.08-11.08
			c-3.77,0-7.21,1.91-9.25,5.01c-1.15-0.63-2.46-0.98-3.85-0.98c-4.44,0-8.06,3.62-8.06,8.06v0.07c-3.41,0.49-6.04,3.43-6.04,6.98
			c0,3.89,3.16,7.05,7.05,7.05h15.11v4.03H40.16v32.24h40.3V84.49h22.16V52.25z M100.61,60.31H64.34v-6.04h36.27V60.31z
			 M47.21,64.34c-2.78,0-5.04-2.26-5.04-5.04c0-2.78,2.26-5.04,5-5.04l1.28,0.01l-0.16-1.15c-0.05-0.34-0.07-0.61-0.07-0.87
			c0-3.33,2.71-6.04,6.04-6.04c2.65,0,4.96,1.69,5.76,4.21l1.92-0.61c-0.43-1.36-1.21-2.53-2.2-3.45c1.66-2.59,4.5-4.18,7.62-4.18
			c5,0,9.07,4.07,9.07,9.07c0,0.34-0.02,0.67-0.06,1.01H62.33v12.09H47.21z M78.44,72.4v6.04H42.18V72.4H78.44z M42.18,100.61V80.46
			h36.27v20.15H42.18z M80.46,82.47V70.39H64.34v-8.06h36.27v20.15H80.46z M80.46,82.47"/>
		<rect x="66.36" y="56.28" class="st1" width="2.01" height="2.01"/>
		<rect x="70.39" y="56.28" class="st1" width="2.01" height="2.01"/>
		<rect x="74.41" y="56.28" class="st1" width="2.01" height="2.01"/>
		<path class="st1" d="M55.85,91.03c0.89-0.91,1.44-2.15,1.44-3.52c0-2.78-2.26-5.04-5.04-5.04c-2.78,0-5.04,2.26-5.04,5.04
			c0,1.37,0.55,2.61,1.44,3.52c-2.61,1.03-4.47,3.58-4.47,6.55v1.01h16.12v-1.01C60.31,94.61,58.46,92.07,55.85,91.03L55.85,91.03z
			 M52.25,84.49c1.67,0,3.02,1.36,3.02,3.02c0,1.67-1.36,3.02-3.02,3.02c-1.67,0-3.02-1.36-3.02-3.02
			C49.23,85.84,50.59,84.49,52.25,84.49L52.25,84.49z M46.31,96.58c0.47-2.3,2.5-4.03,4.94-4.03h2.01c2.43,0,4.47,1.73,4.94,4.03
			H46.31z M46.31,96.58"/>
		<path class="st1" d="M94.13,72.9c0.89-0.91,1.44-2.15,1.44-3.52c0-2.78-2.26-5.04-5.04-5.04c-2.78,0-5.04,2.26-5.04,5.04
			c0,1.37,0.55,2.61,1.44,3.52c-2.61,1.03-4.47,3.58-4.47,6.55v1.01h16.12v-1.01C98.59,76.48,96.74,73.93,94.13,72.9L94.13,72.9z
			 M90.53,66.36c1.67,0,3.02,1.36,3.02,3.02c0,1.67-1.36,3.02-3.02,3.02c-1.67,0-3.02-1.36-3.02-3.02
			C87.51,67.71,88.87,66.36,90.53,66.36L90.53,66.36z M84.59,78.44c0.47-2.3,2.5-4.03,4.94-4.03h2.01c2.43,0,4.47,1.73,4.94,4.03
			H84.59z M84.59,78.44"/>
		<rect x="66.36" y="64.34" class="st1" width="16.12" height="2.01"/>
		<rect x="62.33" y="82.47" class="st1" width="14.1" height="2.01"/>
		<rect x="62.33" y="86.5" class="st1" width="14.1" height="2.01"/>
		<rect x="62.33" y="90.53" class="st1" width="14.1" height="2.01"/>
		<rect x="74.41" y="94.56" class="st1" width="2.01" height="2.01"/>
		<rect x="70.39" y="94.56" class="st1" width="2.01" height="2.01"/>
		<rect x="66.36" y="94.56" class="st1" width="2.01" height="2.01"/>
	</g>
</g>
</svg>
